<svg width="76" height="76" viewBox="0 0 76 76" fill="none" xmlns="http://www.w3.org/2000/svg">
<path d="M21.8502 43C27.4595 43 32.8391 40.7717 36.8055 36.8053C40.7719 32.8389 43.0002 27.4593 43.0002 21.85C43.0002 16.2406 40.7719 10.861 36.8055 6.89464C32.8391 2.92825 27.4595 0.699951 21.8502 0.699951C16.2409 0.699951 10.8613 2.92825 6.89489 6.89464C2.92849 10.861 0.700195 16.2406 0.700195 21.85C0.700195 27.4593 2.92849 32.8389 6.89489 36.8053C10.8613 40.7717 16.2409 43 21.8502 43ZM17.639 12.9388L13.4231 17.15H20.6752C24.1031 17.15 27.3906 18.5117 29.8146 20.9356C32.2385 23.3595 33.6002 26.647 33.6002 30.0749V31.25C33.6002 31.8732 33.3526 32.4709 32.9119 32.9117C32.4712 33.3524 31.8735 33.5999 31.2502 33.5999C30.6269 33.5999 30.0292 33.3524 29.5885 32.9117C29.1478 32.4709 28.9002 31.8732 28.9002 31.25V30.0749C28.9002 27.8935 28.0336 25.8015 26.4911 24.259C24.9487 22.7165 22.8566 21.85 20.6752 21.85H13.4231L17.639 26.0611C18.0803 26.5024 18.3282 27.1009 18.3282 27.725C18.3282 28.349 18.0803 28.9475 17.639 29.3888C17.1977 29.83 16.5992 30.0779 15.9752 30.0779C15.3511 30.0779 14.7527 29.83 14.3114 29.3888L6.077 21.1449C5.85976 20.9269 5.68765 20.6682 5.57053 20.3836C5.45341 20.099 5.39357 19.794 5.39445 19.4862C5.39532 19.1785 5.45689 18.8739 5.57562 18.5899C5.69435 18.306 5.86792 18.0482 6.08639 17.8314L14.3114 9.60645C14.7527 9.16518 15.3511 8.91728 15.9752 8.91728C16.5992 8.91728 17.1977 9.16518 17.639 9.60645C18.0803 10.0477 18.3282 10.6462 18.3282 11.2703C18.3282 11.8943 18.0803 12.4928 17.639 12.9341V12.9388ZM10.1002 44.8799C11.5901 45.6413 13.1599 46.2617 14.8002 46.7271V61.7999C14.8002 63.553 15.2796 65.1934 16.1162 66.5939L38.0605 45.0303C39.3788 43.7358 41.1526 43.0104 43.0002 43.0104C44.8478 43.0104 46.6216 43.7358 47.9399 45.0303L69.8889 66.5939C70.7503 65.1435 71.2034 63.487 71.2002 61.7999V24.2C71.2002 21.7069 70.2098 19.316 68.447 17.5531C66.6842 15.7903 64.2932 14.8 61.8002 14.8H46.7273C46.2674 13.1764 45.6488 11.6022 44.8802 10.1H61.8002C65.5397 10.1 69.1261 11.5855 71.7704 14.2297C74.4147 16.874 75.9002 20.4604 75.9002 24.2V61.7999C75.9002 65.5395 74.4147 69.1259 71.7704 71.7702C69.1261 74.4144 65.5397 75.8999 61.8002 75.8999H24.2002C20.4606 75.8999 16.8743 74.4144 14.23 71.7702C11.5857 69.1259 10.1002 65.5395 10.1002 61.7999V44.8799ZM61.8002 31.25C61.8002 32.1758 61.6178 33.0925 61.2635 33.9479C60.9092 34.8032 60.3899 35.5804 59.7353 36.2351C59.0806 36.8897 58.3035 37.409 57.4481 37.7633C56.5928 38.1176 55.676 38.2999 54.7502 38.2999C53.8244 38.2999 52.9076 38.1176 52.0523 37.7633C51.1969 37.409 50.4197 36.8897 49.7651 36.2351C49.1104 35.5804 48.5911 34.8032 48.2368 33.9479C47.8825 33.0925 47.7002 32.1758 47.7002 31.25C47.7002 29.3802 48.443 27.587 49.7651 26.2648C51.0872 24.9427 52.8804 24.2 54.7502 24.2C56.62 24.2 58.4132 24.9427 59.7353 26.2648C61.0574 27.587 61.8002 29.3802 61.8002 31.25ZM57.1002 31.25C57.1002 30.6267 56.8526 30.029 56.4119 29.5882C55.9712 29.1475 55.3735 28.9 54.7502 28.9C54.1269 28.9 53.5292 29.1475 53.0885 29.5882C52.6478 30.029 52.4002 30.6267 52.4002 31.25C52.4002 31.8732 52.6478 32.4709 53.0885 32.9117C53.5292 33.3524 54.1269 33.5999 54.7502 33.5999C55.3735 33.5999 55.9712 33.3524 56.4119 32.9117C56.8526 32.4709 57.1002 31.8732 57.1002 31.25ZM19.4438 69.9121C20.8856 70.7589 22.5281 71.2036 24.2002 71.2H61.8002C63.5392 71.2 65.1607 70.7299 66.5566 69.9121L44.6452 48.3862C44.2059 47.9556 43.6153 47.7144 43.0002 47.7144C42.3851 47.7144 41.7945 47.9556 41.3552 48.3862L19.4438 69.9121Z" fill="#969696"/>
</svg>
