<svg width="227" height="281" viewBox="0 0 227 281" fill="none" xmlns="http://www.w3.org/2000/svg">
<g clip-path="url(#clip0_274_60)">
<path d="M22.0625 253.54C22.8591 252.103 24.0138 250.897 25.4144 250.039C26.783 249.232 28.3478 248.818 29.9362 248.845C32.582 248.845 34.6054 249.689 36.0065 251.377C37.4076 253.065 38.1082 255.516 38.1082 258.731V271.881H30.5026V260.314C30.5026 258.564 30.2144 257.276 29.6378 256.451C29.0613 255.626 28.1675 255.213 26.9563 255.213C26.3684 255.202 25.7873 255.342 25.2682 255.618C24.7491 255.895 24.3091 256.299 23.9898 256.793C23.2524 257.846 22.8826 259.269 22.8803 261.062V271.865H15.2547V260.314C15.2547 258.564 14.9709 257.276 14.4033 256.451C13.8357 255.626 12.9452 255.214 11.7318 255.217C11.1414 255.206 10.5581 255.346 10.0371 255.625C9.51622 255.903 9.07497 256.31 8.75527 256.806C8.0089 257.866 7.63572 259.286 7.63572 261.066V271.868H0V249.398H6.9117V253.423C7.69496 252.016 8.83639 250.841 10.2201 250.018C11.573 249.232 13.1135 248.826 14.6781 248.845C16.2616 248.806 17.8222 249.229 19.1697 250.062C20.4664 250.899 21.4759 252.112 22.0625 253.54Z" fill="black"/>
<path d="M52.2261 248.788C56.2775 248.788 59.4462 249.833 61.7322 251.923C64.0182 254.014 65.159 256.92 65.1545 260.643C65.1545 264.332 64.0137 267.222 61.7322 269.312C59.4506 271.403 56.2819 272.449 52.2261 272.451C48.1859 272.451 45.0273 271.405 42.7502 269.312C40.4731 267.22 39.3357 264.33 39.3379 260.643C39.3379 256.932 40.4753 254.025 42.7502 251.923C45.025 249.822 48.1837 248.777 52.2261 248.788ZM52.2261 254.154C51.5389 254.14 50.8586 254.293 50.2434 254.6C49.6281 254.906 49.0962 255.357 48.6932 255.914C47.7993 257.088 47.3524 258.643 47.3524 260.579C47.3524 262.515 47.7993 264.056 48.6932 265.201C49.1081 265.746 49.6431 266.189 50.2567 266.495C50.8702 266.8 51.5459 266.96 52.2312 266.962C52.9165 266.964 53.593 266.808 54.2083 266.506C54.8236 266.204 55.3611 265.764 55.7792 265.221C56.673 264.06 57.1199 262.513 57.1199 260.579C57.1199 258.645 56.673 257.087 55.7792 255.904C55.372 255.348 54.8358 254.9 54.2169 254.597C53.5979 254.294 52.9147 254.147 52.2261 254.167V254.154Z" fill="black"/>
<path d="M63.5625 249.385H71.882L76.5982 264.906L81.3546 249.385H89.064L80.6339 271.855H71.9524L63.5625 249.385Z" fill="black"/>
<path d="M90.9146 249.385H98.624V271.855H90.9146V249.385Z" fill="black"/>
<path d="M101.229 239.072H108.938V271.865H101.229V239.072Z" fill="black"/>
<path d="M119.229 268.725V281H111.519V249.385H118.431V253.674C119.227 252.187 120.401 250.935 121.833 250.045C123.25 249.198 124.875 248.763 126.526 248.788C129.551 248.788 131.99 249.854 133.843 251.987C135.695 254.12 136.619 256.959 136.615 260.505C136.615 264.051 135.68 266.933 133.809 269.151C132.944 270.22 131.845 271.077 130.596 271.654C129.348 272.231 127.984 272.514 126.609 272.482C125.157 272.508 123.719 272.186 122.416 271.543C121.14 270.877 120.046 269.91 119.229 268.725ZM124.022 254.546C123.348 254.517 122.678 254.649 122.066 254.931C121.454 255.214 120.918 255.638 120.502 256.169C119.649 257.254 119.222 258.74 119.222 260.63C119.222 262.467 119.641 263.921 120.479 264.989C120.876 265.516 121.395 265.94 121.991 266.223C122.586 266.507 123.242 266.643 123.901 266.619C124.572 266.64 125.238 266.499 125.843 266.207C126.448 265.915 126.973 265.481 127.374 264.942C128.236 263.825 128.666 262.309 128.664 260.395C128.664 258.631 128.241 257.216 127.394 256.149C127.001 255.632 126.489 255.216 125.903 254.937C125.316 254.658 124.671 254.524 124.022 254.546Z" fill="#2F5BF6"/>
<path d="M155.031 249.043L154.625 255.683C154.289 255.547 153.938 255.45 153.579 255.395C153.136 255.326 152.687 255.293 152.238 255.297C150.404 255.297 149.02 255.888 148.089 257.068C147.157 258.249 146.691 259.986 146.691 262.28V271.865H138.981V249.395H145.853V253.674C146.635 252.011 147.588 250.781 148.712 249.985C149.881 249.174 151.278 248.755 152.701 248.791C153.431 248.824 154.159 248.902 154.88 249.026L155.031 249.043Z" fill="#2F5BF6"/>
<path d="M167.57 248.788C171.626 248.788 174.794 249.833 177.076 251.923C179.358 254.014 180.499 256.92 180.502 260.643C180.502 264.332 179.36 267.222 177.076 269.312C174.792 271.403 171.624 272.449 167.57 272.451C163.532 272.451 160.374 271.405 158.097 269.312C155.82 267.22 154.683 264.33 154.685 260.643C154.685 256.932 155.822 254.025 158.097 251.923C160.372 249.822 163.53 248.777 167.57 248.788ZM167.57 254.154C166.883 254.14 166.203 254.293 165.589 254.6C164.974 254.906 164.443 255.357 164.04 255.914C163.146 257.088 162.7 258.643 162.7 260.579C162.7 262.515 163.146 264.056 164.04 265.201C164.455 265.746 164.99 266.189 165.603 266.494C166.216 266.8 166.892 266.96 167.577 266.962C168.262 266.964 168.938 266.808 169.553 266.506C170.168 266.204 170.705 265.764 171.123 265.221C172.017 264.06 172.464 262.513 172.464 260.579C172.464 258.645 172.017 257.087 171.123 255.904C170.716 255.348 170.18 254.899 169.561 254.596C168.942 254.293 168.259 254.146 167.57 254.167V254.154Z" fill="#2F5BF6"/>
<path d="M198.77 239.159L198.301 244.411C197.996 244.269 197.679 244.156 197.352 244.076C197.034 243.998 196.708 243.959 196.38 243.958C195.284 243.958 194.486 244.294 193.98 244.941C193.474 245.588 193.223 246.618 193.223 248.037V249.378H201.22V254.972H193.213V271.858H185.617V254.979H183.11V249.385H185.617V247.336C185.617 244.445 186.353 242.274 187.826 240.823C189.299 239.372 191.494 238.646 194.413 238.646C195.197 238.643 195.98 238.685 196.759 238.774C197.438 238.853 198.11 238.982 198.77 239.159Z" fill="#2F5BF6"/>
<path d="M200.034 249.385H207.743V271.855H200.034V249.385Z" fill="#2F5BF6"/>
<path d="M221.365 241.742V249.385H226.873V254.935H221.365V262.686C221.365 264.349 221.636 265.523 222.177 266.207C222.72 266.878 223.641 267.23 224.952 267.23C225.188 267.225 225.424 267.201 225.656 267.156C225.941 267.106 226.346 267.019 226.873 266.891L227 271.922C226.175 272.109 225.374 272.257 224.6 272.351C223.846 272.447 223.087 272.497 222.327 272.499C219.284 272.499 217.083 271.748 215.724 270.248C214.365 268.748 213.686 266.298 213.686 262.897V254.935H209.355V249.385H214.112V244.197L221.365 241.742Z" fill="#2F5BF6"/>
<path d="M203.892 245.37C205.743 245.37 207.244 243.869 207.244 242.017C207.244 240.165 205.743 238.663 203.892 238.663C202.041 238.663 200.54 240.165 200.54 242.017C200.54 243.869 202.041 245.37 203.892 245.37Z" fill="#2F5BF6"/>
<path d="M94.6185 245.37C96.4698 245.37 97.9705 243.869 97.9705 242.017C97.9705 240.165 96.4698 238.663 94.6185 238.663C92.7673 238.663 91.2666 240.165 91.2666 242.017C91.2666 243.869 92.7673 245.37 94.6185 245.37Z" fill="black"/>
<path d="M168.683 44.0475C168.689 41.4344 168.395 38.8292 167.805 36.2837C165.324 25.6726 157.078 13.9346 140.902 14.2029C127.803 14.4209 120.764 14.0855 107.218 14.1627C101.114 14.1962 97.9703 14.7563 94.605 21.2826C93.4418 23.5363 92.0542 25.7631 90.3815 28.5936H93.6731C109.897 28.5936 126.12 28.5936 142.343 28.5936C148.377 28.5936 152.04 31.1425 154.41 36.7129C155.865 40.1907 155.865 43.8027 155.865 47.4381C155.865 88.3041 155.865 129.17 155.865 170.036C155.899 171.626 155.838 173.216 155.684 174.798C154.678 183.297 149.741 187.727 141.271 187.734C116.764 187.758 92.2586 187.769 67.7559 187.767C61.2297 187.767 57.737 185.326 55.3001 179.299C54.2074 176.593 54.0934 173.785 54.0934 170.942C54.0934 139.497 54.07 106.567 54.0733 75.1229C54.0733 74.1906 54.0733 73.4226 54.0499 72.7753H41.1885C41.289 113.02 41.3114 153.253 41.2555 193.475C41.2487 196.883 41.6905 200.277 42.5695 203.57C45.6466 215.09 55.213 223.638 65.4398 223.668C91.4173 223.742 117.395 223.705 143.376 223.729C148.068 223.729 152.406 222.575 156.173 219.812C165.136 213.238 168.673 203.986 168.679 193.213C168.711 143.494 168.712 93.7717 168.683 44.0475ZM142.072 27.9665C127.182 27.9844 112.293 27.9844 97.4038 27.9665C96.4251 27.9665 95.3458 28.2583 94.558 27.3326L144.918 27.3159C144.133 28.2516 143.054 27.9665 142.072 27.9665ZM79.776 205.223C77.0743 205.089 74.3626 205.19 71.6543 205.19C68.9459 205.19 66.2342 205.089 63.5325 205.22C61.4107 205.32 61.4778 204.012 61.5448 202.6C61.6051 201.323 61.1426 199.787 63.385 199.817C68.9124 199.881 74.4464 199.901 79.9704 199.8C82.4207 199.753 81.871 201.41 82.0017 202.785C82.1626 204.455 81.6732 205.32 79.776 205.223ZM104.792 213.409C101.937 213.369 99.2084 212.223 97.1811 210.211C95.1537 208.2 93.9851 205.48 93.9212 202.624C93.8474 196.614 98.7513 191.738 104.939 191.664C106.381 191.647 107.813 191.919 109.149 192.463C110.485 193.007 111.699 193.812 112.72 194.832C113.742 195.851 114.549 197.064 115.096 198.4C115.642 199.736 115.917 201.167 115.903 202.611C115.866 208.704 111.016 213.42 104.792 213.409ZM145.849 205.247C143.359 205.112 140.858 205.213 138.365 205.21C135.643 205.21 132.911 205.086 130.199 205.247C127.974 205.381 127.927 204.157 127.903 202.503C127.876 200.773 128.121 199.736 130.249 199.793C135.462 199.931 140.684 199.978 145.896 199.834C148.28 199.767 148.333 200.987 148.404 202.772C148.491 204.75 147.74 205.337 145.849 205.247Z" fill="black" stroke="black" stroke-width="2" stroke-miterlimit="10"/>
<path d="M97.4039 27.97C112.293 27.9834 127.183 27.9834 142.072 27.97C143.054 27.97 144.133 28.2551 144.918 27.3228L94.5581 27.3395C95.3458 28.2618 96.4251 27.9667 97.4039 27.97Z" fill="#000718"/>
<path d="M105.174 194.723C100.384 194.682 97.1025 197.919 97.0489 202.738C96.9986 207.225 100.421 210.653 104.956 210.656C109.491 210.659 112.877 207.363 112.957 202.788C112.989 201.744 112.812 200.703 112.436 199.728C112.06 198.754 111.492 197.864 110.767 197.112C110.041 196.36 109.173 195.762 108.212 195.351C107.251 194.941 106.218 194.727 105.174 194.723Z" fill="#03182D"/>
<path d="M105.483 122.179C105.483 122.772 105.718 123.341 106.137 123.76C106.557 124.18 107.125 124.416 107.718 124.416H113.356V88.9971H103.575C103.111 88.9973 102.658 89.1425 102.279 89.4124C101.901 89.6822 101.616 90.0634 101.464 90.5029L94.7598 109.954C94.2027 111.633 93.7339 113.341 93.3553 115.069H93.1844C92.9166 113.347 92.4959 111.652 91.9274 110.005L85.2235 90.5163C85.0716 90.0768 84.7866 89.6957 84.4081 89.4258C84.0297 89.1559 83.5766 89.0107 83.1118 89.0105H75.2549C74.9614 89.0105 74.6708 89.0684 74.3998 89.1808C74.1287 89.2933 73.8825 89.4581 73.6751 89.6659C73.4678 89.8736 73.3034 90.1203 73.1914 90.3916C73.0794 90.663 73.022 90.9538 73.0225 91.2474V122.192C73.0225 122.785 73.2576 123.353 73.6761 123.773C74.0947 124.192 74.6625 124.428 75.2549 124.429H77.9699C78.5629 124.429 79.1315 124.193 79.5508 123.774C79.9701 123.354 80.2057 122.785 80.2057 122.192V104.83C80.2057 102.194 80.0939 99.1308 79.8705 95.6408H80.1118C80.6213 98.2924 80.9923 99.9391 81.2247 100.581L89.1386 122.926C89.2925 123.362 89.5776 123.739 89.9546 124.006C90.3315 124.272 90.7819 124.416 91.2436 124.416H94.5955C95.0612 124.415 95.5151 124.27 95.8942 123.999C96.2733 123.729 96.5587 123.347 96.7106 122.906L104.484 100.333C104.956 98.7934 105.326 97.225 105.593 95.6374H105.791C105.594 98.4053 105.496 100.933 105.496 103.22L105.483 122.179Z" fill="black" stroke="black" stroke-width="2" stroke-miterlimit="10"/>
<path d="M79.5788 22.3189C81.3386 24.4317 83.2324 24.7436 84.8112 23.1875C86.3061 21.7085 86.276 19.5588 84.6603 17.5902C75.238 6.12051 63.399 0.33537 49.3242 0C34.9678 0.291772 23.0852 6.12386 13.6261 17.6505C12.0372 19.5856 12.0674 21.8192 13.5758 23.2378C15.1545 24.7034 17.0383 24.4015 18.6875 22.4094C35.4204 2.22015 62.7856 2.17655 79.5788 22.3189Z" fill="#2F5AF8"/>
<path d="M66.4321 28.6305C67.689 29.7674 68.7516 31.1458 69.9348 32.3766C71.0075 33.4934 72.2812 33.755 73.6421 33.1144C74.9292 32.5041 75.5862 31.3772 75.6264 29.5226C75.6734 28.6305 75.1035 27.725 74.3762 26.8833C65.0276 16.0709 53.6645 12.2846 40.3674 15.8362C33.6635 17.6203 28.1395 21.6146 23.6613 27.2756C22.2937 29.0028 22.4177 31.2062 23.8658 32.5544C25.3138 33.9026 27.1775 33.7047 28.6155 32.1519C28.83 31.9205 29.0144 31.6556 29.2188 31.4141C39.0367 19.7298 55.2332 18.5024 66.4321 28.6305ZM74.7013 30.9077C72.1672 29.3851 70.2365 27.165 68.0443 25.2433C71.4399 25.7296 73.0991 28.2885 74.7013 30.9077Z" fill="#2F5AF8"/>
<path d="M68.0439 25.2432C70.2495 27.1481 72.1802 29.385 74.7143 30.9076C73.0987 28.2883 71.4395 25.7295 68.0439 25.2432Z" fill="#2F5AF8"/>
<path d="M59.1982 41.1601C60.9144 43.0818 62.8216 43.3065 64.3199 41.7571C65.768 40.268 65.6976 38.0479 64.0685 36.1564C60.0965 31.5249 55.1691 29.1773 49.444 29.0029C43.3535 29.0767 38.3089 31.4478 34.2463 36.1866C32.6106 38.0948 32.5704 40.2881 34.0452 41.7738C35.577 43.3132 37.3972 43.0818 39.1502 41.1299C44.9893 34.5969 53.3557 34.6103 59.1982 41.1601Z" fill="#2F5AF8"/>
<path d="M48.6975 58.0188C53.5106 58.0188 57.4125 54.1149 57.4125 49.2992C57.4125 44.4835 53.5106 40.5796 48.6975 40.5796C43.8843 40.5796 39.9824 44.4835 39.9824 49.2992C39.9824 54.1149 43.8843 58.0188 48.6975 58.0188Z" fill="#2F5AF8"/>
<path d="M44.8218 69.2842C47.3559 69.4217 46.4006 69.3915 47.195 69.4385C53.1547 69.794 53.9223 68.6705 54.0363 72.7754H54.3279V69.9415C54.3279 69.7849 54.297 69.6298 54.237 69.4852C54.177 69.3405 54.0891 69.2091 53.9782 69.0985C53.8674 68.9879 53.7358 68.9003 53.591 68.8406C53.4463 68.781 53.2912 68.7505 53.1346 68.751H42.0263C41.7104 68.751 41.4074 68.8763 41.1837 69.0995C40.96 69.3227 40.8339 69.6255 40.833 69.9415V72.7754H41.1883V72.5776C41.1783 69.6464 41.9727 69.1299 44.8218 69.2842Z" fill="black"/>
<path d="M47.1952 69.4385C46.4008 69.3915 47.3561 69.4217 44.8221 69.2842C41.9729 69.1299 41.1785 69.6464 41.1886 72.5775V72.7754H54.0366C53.9226 68.6705 53.155 69.794 47.1952 69.4385Z" fill="black"/>
<path d="M126.097 88.6616H113.359V124.758H119.209C119.813 124.758 120.393 124.517 120.82 124.09C121.248 123.662 121.488 123.082 121.488 122.477V114.603C121.487 114.303 121.546 114.007 121.66 113.73C121.774 113.453 121.942 113.202 122.153 112.99C122.365 112.778 122.616 112.61 122.892 112.496C123.168 112.381 123.465 112.322 123.764 112.322H125.363C129.722 112.322 133.206 111.204 135.814 108.968C138.422 106.732 139.726 103.8 139.726 100.172C139.73 92.4983 135.187 88.6616 126.097 88.6616ZM124.692 106.155H123.774C123.17 106.155 122.591 105.915 122.164 105.488C121.738 105.061 121.498 104.481 121.498 103.877V97.17C121.498 96.5657 121.738 95.9862 122.164 95.5586C122.591 95.131 123.17 94.8903 123.774 94.8894H124.692C129.019 94.8894 131.182 96.744 131.182 100.453C131.179 104.254 129.016 106.155 124.692 106.155Z" fill="#3059FA"/>
</g>
<defs>
<clipPath id="clip0_274_60">
<rect width="227" height="281" fill="white"/>
</clipPath>
</defs>
</svg>
